<svg width="1474" height="150" viewBox="0 0 1474 150" fill="none" xmlns="http://www.w3.org/2000/svg">
<g opacity="0.6">
<path d="M0 144.802C0 98.1338 0 51.1734 0 3.62976C2.04175 3.62976 4.0835 3.62976 6.41693 3.62976C38.2099 3.62976 70.003 3.62976 101.796 3.62976C110.838 3.62976 119.297 6.25487 127.755 8.29662C138.256 10.6301 147.006 15.8803 154.882 23.1723C156.632 24.9223 159.257 25.7974 160.715 27.5474C163.924 31.9226 166.257 36.8812 169.174 41.548C170.924 44.4648 172.382 48.5483 172.674 52.0485C173.257 62.2572 175.882 72.466 174.716 82.6748C174.424 85.5916 173.549 88.5084 172.966 91.4251C172.382 94.6336 171.799 97.8421 170.632 101.051C169.466 103.967 167.132 106.009 167.715 109.509C160.715 119.426 153.715 129.343 141.756 134.885C131.256 139.844 120.172 142.177 108.796 143.927C91.0039 146.261 73.2114 144.802 55.419 145.386C37.3349 145.969 19.2508 145.386 1.1667 145.386C0.875019 145.386 0.583358 145.094 0 144.802ZM38.5016 33.381C38.5016 61.3822 38.5016 88.2167 38.5016 115.343C39.085 115.635 39.3766 115.634 39.6683 115.634C53.3772 115.634 67.0862 115.634 80.7951 115.634C83.4202 115.634 86.337 116.51 88.6704 115.343C92.1706 113.593 95.6707 114.176 99.4625 113.593C103.254 113.301 107.338 112.718 110.838 111.843C113.755 111.259 116.672 110.093 119.297 108.926C130.672 103.092 135.047 93.1752 136.506 81.2164C137.089 76.5495 136.214 71.8827 136.797 67.2158C137.381 59.9238 134.172 53.7985 130.964 47.6733C128.047 42.1314 120.755 40.9647 116.38 36.5895C109.963 36.2978 103.838 33.381 97.7125 33.0893C77.8783 33.0893 58.3358 33.381 38.5016 33.381Z" fill="#EFEFEF"/>
<path d="M597.068 3.33804C608.152 3.33804 618.652 3.33804 629.445 3.33804C629.736 3.33804 630.32 2.463 630.611 2.17133C632.07 2.75468 633.528 3.62972 635.278 4.21308C635.278 20.5471 635.278 37.1728 635.278 54.0902C667.946 54.0902 700.031 54.0902 732.699 54.0902C732.699 54.0902 732.699 54.0902 732.991 53.7985C733.282 53.5068 733.282 53.2152 733.282 52.9235C733.282 37.1728 733.282 21.4221 733.282 5.96315C734.157 5.08811 734.741 4.50476 735.616 3.62972C747.283 3.62972 759.242 3.62972 771.492 3.62972C771.492 50.59 771.492 97.5504 771.492 144.802C758.95 144.802 746.408 144.802 733.574 144.802C733.574 125.26 733.574 105.426 733.574 85.5915C700.614 85.5915 668.53 85.5915 635.57 85.5915C635.57 105.134 635.57 124.968 635.57 144.802C622.444 144.802 610.194 144.802 597.36 144.802C597.068 98.1337 597.068 51.1734 597.068 3.33804Z" fill="#EFEFEF"/>
<path d="M263.971 3.62988C265.429 3.62988 266.304 3.3382 267.179 3.3382C280.596 3.3382 294.014 3.3382 306.848 3.3382C312.098 12.3802 315.598 21.714 321.14 30.1727C324.348 35.1312 326.682 41.2565 329.598 46.7984C337.182 61.674 345.349 76.5496 352.933 91.4253C359.933 104.551 366.35 117.968 373.35 131.094C375.684 135.469 377.726 139.844 379.767 143.927C379.476 144.511 379.184 144.803 378.892 144.803C378.601 145.094 378.309 145.094 378.309 145.094C365.475 145.094 352.641 145.094 339.807 145.094C337.182 140.427 334.265 136.052 331.932 131.677C329.599 127.01 327.848 122.343 325.515 117.093C311.806 117.093 298.389 117.093 285.263 117.093C272.138 117.093 259.012 117.093 245.595 117.093C243.553 122.052 240.345 126.427 238.303 131.385C236.261 136.052 233.344 140.427 230.719 144.803C217.302 144.803 204.177 144.803 190.759 144.803C193.968 136.344 197.76 128.76 202.426 121.177C207.968 112.426 212.344 102.509 216.427 92.8837C218.177 88.5085 221.386 85.3 222.552 80.6331C223.719 75.9663 227.219 72.1744 229.553 67.7993C231.594 63.7157 233.344 59.3406 235.678 55.5487C243.553 42.7149 249.387 29.0059 256.679 16.1721C259.596 12.0886 261.929 8.00506 263.971 3.62988ZM258.429 90.8419C276.513 90.8419 294.014 90.8419 312.098 90.8419C307.723 81.5082 303.931 72.7578 299.264 64.2991C294.597 55.8404 291.68 46.7984 285.555 38.048C282.346 44.1733 279.138 50.0068 276.221 55.8404C273.304 61.674 270.679 67.5076 268.054 73.3412C264.846 78.8831 261.637 84.425 258.429 90.8419Z" fill="#EFEFEF"/>
<path d="M395.518 95.5087C395.81 87.6333 392.893 79.758 393.476 71.8827C394.643 59.3405 396.976 47.6733 403.977 36.8812C410.977 26.0891 419.727 17.3387 431.686 12.0885C442.478 7.42161 453.27 2.75475 464.938 1.87971C469.896 -1.03708 475.438 0.421314 480.688 0.129635C490.314 -0.162044 499.939 0.129635 509.564 0.129635C518.607 0.129635 527.065 2.46307 535.524 4.7965C539.607 5.96322 543.983 6.54657 548.066 8.58833C551.566 10.3384 555.65 11.2134 559.733 12.6718C559.733 23.464 559.733 33.6727 559.733 44.1732C559.733 44.7565 559.15 45.0482 558.567 45.9232C556.525 44.7565 554.191 43.5898 552.15 42.4231C543.691 37.7562 534.649 35.1311 525.899 32.2143C520.94 30.4642 515.398 30.1726 510.148 29.8809C499.939 29.5892 489.73 29.2975 479.522 29.8809C465.813 30.7559 452.687 33.9644 442.77 44.1732C437.811 49.1317 435.186 55.257 433.436 62.2573C431.978 67.7992 431.686 73.0494 431.978 78.2996C432.561 87.3417 434.895 95.8003 441.895 102.217C444.812 104.842 447.145 107.467 449.77 110.093C459.104 112.426 466.979 118.26 476.896 117.676C486.522 121.176 496.147 119.426 505.773 119.135C515.106 118.843 524.44 117.093 533.191 114.176C541.941 111.259 550.108 107.176 559.15 103.676C560.025 114.176 559.15 124.385 559.733 134.594C554.483 139.26 547.483 139.844 541.649 142.177C533.774 145.094 525.315 146.552 516.856 148.011C504.314 150.053 492.064 149.761 479.813 148.886C469.604 148.303 459.104 147.428 449.187 143.052C445.395 141.302 441.02 140.136 436.936 138.677C430.52 136.344 424.394 133.135 419.436 128.468C405.727 115.926 406.31 116.801 396.685 96.967C396.393 96.092 395.81 95.8003 395.518 95.5087Z" fill="#EFEFEF"/>
<path d="M908.288 145.386C908.288 97.8421 908.288 51.1734 908.288 3.62976C911.205 3.62976 914.122 3.62976 916.747 3.62976C944.748 3.62976 972.749 3.62976 1000.75 3.62976C1007.75 3.62976 1020.29 6.83823 1028.46 12.9635C1030.21 14.1302 1031.09 16.4636 1032.54 18.2137C1034.29 20.8388 1035.75 23.1723 1037.79 26.089C1037.79 33.6727 1037.79 41.8397 1037.79 47.6733C1034 61.9656 1023.79 65.4657 1011.54 69.2575C1018.83 70.1326 1023.79 71.8827 1028.75 73.341C1038.67 76.2578 1049.46 89.0917 1048.29 100.176C1048 103.967 1048 107.759 1048.29 111.551C1048.88 121.176 1044.5 128.76 1037.21 134.01C1029.63 139.844 1020.58 142.469 1010.67 143.927C993.75 146.261 976.833 144.802 959.624 145.386C942.998 145.677 926.081 145.386 908.288 145.386ZM1014.75 77.7162C1008.33 76.8412 1002.5 75.6745 996.667 75.3828C990.25 75.0911 983.833 75.3828 977.416 75.3828C960.499 75.3828 943.581 75.3828 926.664 75.3828C924.622 75.3828 922.872 75.3828 920.83 75.3828C920.83 94.9253 920.83 114.176 920.83 132.552C924.039 134.01 927.539 131.385 930.164 134.885C931.623 132.26 934.248 133.135 936.581 133.135C957.874 133.135 979.166 132.844 1000.46 133.135C1007.46 133.135 1014.17 132.552 1020.88 129.635C1027.58 126.718 1031.96 122.635 1034.59 115.635C1036.92 109.509 1035.75 103.967 1034.88 97.8421C1033.42 89.3834 1028.46 85.0082 1022.33 81.2164C1019.42 79.758 1016.79 78.5913 1014.75 77.7162ZM920.539 64.8824C933.664 64.8824 946.207 65.174 958.749 64.8824C971.291 64.5907 983.833 65.4657 996.667 63.424C1002.79 62.5489 1008.63 61.3822 1014.46 59.3405C1018.83 57.8821 1023.21 55.8403 1024.67 50.5901C1025.54 46.7983 1026.42 43.0064 1027.29 39.5063C1028.17 34.8394 1025.83 30.7559 1024.96 26.9641C1020.88 21.7139 1015.92 17.922 1009.79 16.7553C1004.54 15.8803 999.584 14.1302 994.334 14.1302C972.458 14.1302 950.582 14.1302 928.706 14.1302C926.081 14.1302 923.456 14.1302 920.83 14.1302C920.539 31.0476 920.539 47.6733 920.539 64.8824Z" fill="#EFEFEF"/>
<path d="M1318.1 4.21283C1318.97 3.33779 1319.56 2.75443 1320.14 2.17107C1320.72 2.17107 1321.31 1.87939 1321.89 1.87939C1326.56 4.79618 1331.81 3.92115 1336.76 3.04611C1342.6 1.87939 1345.51 1.87939 1351.64 3.04611C1355.72 3.92115 1360.68 4.50451 1364.47 3.33779C1367.39 2.46275 1370.02 1.8794 1372.64 2.17107C1385.48 2.46275 1398.6 2.46275 1411.14 3.92115C1422.52 5.37954 1433.6 8.00465 1443.52 14.1299C1457.52 22.5886 1466.85 33.9641 1470.35 50.2981C1471.23 54.6733 1470.65 59.6318 1472.1 63.4237C1473.85 68.0905 1473.85 72.4657 1473.27 76.8409C1471.81 88.7997 1470.94 100.759 1465.1 111.842C1460.73 120.009 1454.6 125.843 1447.89 131.385C1439.73 138.093 1429.23 139.552 1419.89 143.635C1419.6 143.635 1419.31 143.635 1419.02 143.635C1410.85 144.219 1402.68 145.094 1394.52 145.385C1369.14 145.677 1343.76 145.385 1318.39 145.385C1318.1 98.1335 1318.1 51.1731 1318.1 4.21283ZM1330.35 14.1299C1330.35 54.3816 1330.35 93.4666 1330.35 133.135C1344.64 133.135 1358.64 133.427 1372.64 133.135C1386.35 132.552 1400.06 134.302 1414.06 131.677C1421.06 130.218 1428.35 129.051 1434.48 125.551C1443.23 120.593 1450.52 113.301 1454.6 103.675C1455.48 101.342 1456.64 99.3002 1457.81 96.9667C1458.39 92.5916 1459.85 87.9247 1459.85 82.9662C1459.85 73.9241 1460.14 64.8821 1458.39 55.5483C1455.48 40.0893 1447.6 28.4222 1433.6 21.4219C1424.27 16.755 1413.77 14.1299 1403.56 13.8382C1379.06 13.5466 1354.85 14.1299 1330.35 14.1299Z" fill="#EFEFEF"/>
<path d="M1117.71 3.92115C1121.5 20.8385 1119.75 37.4642 1120.04 54.0899C1120.34 71.0073 1120.34 87.9247 1120.04 104.842C1120.04 113.592 1124.71 118.843 1130.55 124.385C1137.84 131.093 1147.17 132.26 1155.63 136.052C1156.21 136.343 1156.8 136.635 1157.09 136.343C1164.09 135.177 1170.51 138.093 1177.21 138.385C1182.76 138.385 1187.71 136.927 1193.26 136.635C1198.51 136.343 1203.46 135.76 1208.71 133.427C1211.34 132.26 1214.84 131.677 1218.05 130.802C1225.05 128.176 1230.01 122.926 1234.38 117.676C1238.17 113.301 1239.05 107.176 1239.05 101.342C1239.34 82.6745 1239.05 64.007 1239.05 45.3396C1239.05 31.0473 1239.05 16.755 1239.05 1.87939C1241.38 2.17107 1243.42 2.46275 1245.76 3.04611C1246.92 2.75443 1248.67 2.17107 1250.43 1.87939C1251.01 2.75443 1251.3 3.33779 1251.3 3.62947C1251.3 37.7559 1251.3 71.8824 1251.3 106.009C1251.3 114.176 1247.8 120.884 1242.84 127.01C1239.05 131.968 1233.8 135.76 1228.84 139.26C1223.88 142.76 1217.76 143.344 1212.22 145.677C1208.13 147.427 1203.76 146.552 1199.96 147.719C1192.09 150.052 1183.92 148.886 1176.05 149.177C1171.09 149.469 1165.55 150.636 1161.46 148.886C1156.8 146.552 1151.84 149.469 1147.75 145.969C1146.59 145.094 1143.96 145.677 1142.5 145.677C1136.09 141.594 1129.67 139.552 1124.13 135.468C1114.5 128.468 1110.42 121.468 1107.5 109.801C1106.04 103.675 1106.04 98.1335 1106.04 92.0082C1106.04 62.8403 1106.04 33.6724 1106.04 4.21283C1109.84 3.92115 1113.63 3.92115 1117.71 3.92115Z" fill="#EFEFEF"/>
</g>
</svg>
