<svg width="1102" height="118" viewBox="0 0 1102 118" fill="none" xmlns="http://www.w3.org/2000/svg">
<g opacity="0.6">
<path d="M-43.606 113.398C-43.606 77.1302 -43.606 40.6361 -43.606 3.68866C-42.0193 3.68866 -40.4326 3.68866 -38.6192 3.68866C-13.912 3.68866 10.7952 3.68866 35.5024 3.68866C42.5292 3.68866 49.1027 5.7287 55.6761 7.3154C63.8363 9.12877 70.6364 13.2089 76.7566 18.8756C78.1166 20.2357 80.1566 20.9157 81.29 22.2757C83.7834 25.6758 85.5968 29.5292 87.8635 33.1559C89.2235 35.4227 90.3569 38.5961 90.5835 41.3161C91.0369 49.2496 93.0769 57.1831 92.1702 65.1166C91.9436 67.3833 91.2636 69.6501 90.8102 71.9168C90.3569 74.4102 89.9035 76.9035 88.9968 79.3969C88.0902 81.6636 86.2768 83.2504 86.7301 85.9704C81.29 93.6772 75.8499 101.384 66.5564 105.691C58.3962 109.544 49.7827 111.358 40.9425 112.718C27.1155 114.531 13.2886 113.398 -0.53838 113.851C-14.592 114.304 -28.6457 113.851 -42.6993 113.851C-42.926 113.851 -43.1526 113.624 -43.606 113.398ZM-13.6853 26.8091C-13.6853 48.5696 -13.6853 69.4234 -13.6853 90.5038C-13.232 90.7305 -13.0053 90.7305 -12.7787 90.7305C-2.1251 90.7305 8.52847 90.7305 19.182 90.7305C21.2221 90.7305 23.4888 91.4105 25.3022 90.5038C28.0222 89.1438 30.7423 89.5971 33.689 89.1438C36.6357 88.9171 39.8091 88.4638 42.5292 87.7838C44.7959 87.3304 47.0626 86.4237 49.1027 85.5171C57.9428 80.9836 61.3429 73.2768 62.4763 63.9833C62.9296 60.3565 62.2496 56.7298 62.7029 53.103C63.1563 47.4363 60.6629 42.6762 58.1695 37.916C55.9028 33.6093 50.236 32.7026 46.8359 29.3025C41.8492 29.0759 37.0891 26.8091 32.329 26.5825C16.9153 26.5825 1.72833 26.8091 -13.6853 26.8091Z" fill="white"/>
<path d="M420.392 3.46192C429.005 3.46192 437.165 3.46192 445.552 3.46192C445.779 3.46192 446.232 2.78191 446.459 2.55524C447.592 3.00858 448.726 3.68859 450.086 4.14194C450.086 16.8355 450.086 29.7558 450.086 42.9028C475.473 42.9028 500.407 42.9028 525.794 42.9028C525.794 42.9028 525.794 42.9028 526.021 42.6761C526.247 42.4494 526.247 42.2227 526.247 41.9961C526.247 29.7558 526.247 17.5156 526.247 5.50196C526.927 4.82195 527.381 4.36861 528.061 3.68859C537.127 3.68859 546.421 3.68859 555.941 3.68859C555.941 40.1827 555.941 76.6768 555.941 113.398C546.194 113.398 536.447 113.398 526.474 113.398C526.474 98.2106 526.474 82.7969 526.474 67.3833C500.86 67.3833 475.926 67.3833 450.312 67.3833C450.312 82.5703 450.312 97.9839 450.312 113.398C440.112 113.398 430.592 113.398 420.618 113.398C420.392 77.1301 420.392 40.636 420.392 3.46192Z" fill="white"/>
<path d="M161.533 3.68865C162.666 3.68865 163.346 3.46198 164.026 3.46198C174.453 3.46198 184.88 3.46198 194.853 3.46198C198.934 10.4888 201.654 17.7423 205.96 24.3158C208.454 28.1692 210.267 32.9293 212.534 37.236C218.427 48.7963 224.774 60.3565 230.667 71.9168C236.108 82.117 241.094 92.5439 246.534 102.744C248.348 106.144 249.935 109.544 251.521 112.718C251.295 113.171 251.068 113.398 250.841 113.398C250.615 113.624 250.388 113.624 250.388 113.624C240.414 113.624 230.441 113.624 220.467 113.624C218.427 109.998 216.161 106.597 214.347 103.197C212.534 99.5707 211.174 95.9439 209.36 91.8638C198.707 91.8638 188.28 91.8638 178.08 91.8638C167.88 91.8638 157.679 91.8638 147.252 91.8638C145.666 95.7173 143.172 99.1173 141.586 102.971C139.999 106.597 137.732 109.998 135.692 113.398C125.265 113.398 115.065 113.398 104.638 113.398C107.132 106.824 110.078 100.931 113.705 95.0372C118.012 88.2371 121.412 80.5303 124.585 73.0501C125.945 69.65 128.439 67.1567 129.345 63.5299C130.252 59.9032 132.972 56.9564 134.785 53.5564C136.372 50.383 137.732 46.9829 139.546 44.0362C145.666 34.0626 150.199 23.4091 155.866 13.4355C158.133 10.2621 159.946 7.08872 161.533 3.68865ZM157.226 71.4634C171.28 71.4634 184.88 71.4634 198.933 71.4634C195.533 64.2099 192.587 57.4098 188.96 50.8363C185.333 44.2628 183.066 37.236 178.306 30.4359C175.813 35.196 173.32 39.7294 171.053 44.2628C168.786 48.7963 166.746 53.3297 164.706 57.8631C162.213 62.1699 159.719 66.4766 157.226 71.4634Z" fill="white"/>
<path d="M263.762 75.0901C263.988 68.97 261.722 62.8498 262.175 56.7297C263.082 46.9828 264.895 37.916 270.335 29.5291C275.775 21.1423 282.575 14.3422 291.869 10.2621C300.256 6.63533 308.643 3.00858 317.709 2.32857C321.563 0.0618559 325.87 1.19521 329.95 0.968541C337.43 0.741869 344.91 0.968541 352.39 0.968541C359.417 0.968541 365.99 2.78191 372.564 4.59528C375.737 5.50197 379.137 5.95531 382.311 7.54201C385.031 8.90204 388.204 9.58206 391.378 10.7154C391.378 19.1023 391.378 27.0358 391.378 35.1959C391.378 35.6493 390.924 35.8759 390.471 36.556C388.884 35.6493 387.071 34.7426 385.484 33.8359C378.911 30.2092 371.884 28.1691 365.084 25.9024C361.23 24.5424 356.924 24.3157 352.843 24.089C344.91 23.8624 336.976 23.6357 329.043 24.089C318.389 24.769 308.189 27.2624 300.482 35.1959C296.629 39.0493 294.589 43.8094 293.229 49.2496C292.095 53.5563 291.869 57.6364 292.095 61.7165C292.549 68.7433 294.362 75.3168 299.802 80.3035C302.069 82.3436 303.882 84.3836 305.922 86.4237C313.176 88.237 319.296 92.7705 327.003 92.3171C334.483 95.0372 341.963 93.6772 349.443 93.4505C356.697 93.2238 363.95 91.8638 370.75 89.5971C377.551 87.3304 383.897 84.157 390.924 81.4369C391.604 89.5971 390.924 97.5306 391.378 105.464C387.298 109.091 381.857 109.544 377.324 111.358C371.204 113.624 364.63 114.758 358.057 115.891C348.31 117.478 338.79 117.251 329.27 116.571C321.336 116.118 313.176 115.438 305.469 112.038C302.522 110.678 299.122 109.771 295.949 108.637C290.962 106.824 286.202 104.331 282.349 100.704C271.695 90.9571 272.148 91.6371 264.668 76.2234C264.442 75.5434 263.988 75.3168 263.762 75.0901Z" fill="white"/>
<path d="M662.249 113.851C662.249 76.9035 662.249 40.6361 662.249 3.68866C664.516 3.68866 666.782 3.68866 668.822 3.68866C690.583 3.68866 712.343 3.68866 734.104 3.68866C739.544 3.68866 749.291 6.18205 755.638 10.9421C756.998 11.8488 757.678 13.6622 758.811 15.0222C760.171 17.0623 761.304 18.8756 762.891 21.1424C762.891 27.0358 762.891 33.3826 762.891 37.916C759.944 49.023 752.011 51.743 742.491 54.6897C748.157 55.3697 752.011 56.7298 755.864 57.8631C763.571 60.1299 771.958 70.1034 771.051 78.7169C770.825 81.6636 770.825 84.6104 771.051 87.5571C771.505 95.0373 768.105 100.931 762.438 105.011C756.544 109.544 749.517 111.584 741.811 112.718C728.664 114.531 715.517 113.398 702.143 113.851C689.223 114.078 676.076 113.851 662.249 113.851ZM744.984 61.2632C739.997 60.5832 735.464 59.6765 730.93 59.4498C725.944 59.2232 720.957 59.4498 715.97 59.4498C702.823 59.4498 689.676 59.4498 676.529 59.4498C674.943 59.4498 673.583 59.4498 671.996 59.4498C671.996 74.6368 671.996 89.5971 671.996 103.877C674.489 105.011 677.209 102.971 679.249 105.691C680.383 103.651 682.423 104.331 684.236 104.331C700.783 104.331 717.33 104.104 733.877 104.331C739.317 104.331 744.531 103.877 749.744 101.611C754.958 99.344 758.358 96.1706 760.398 90.7305C762.211 85.9704 761.304 81.6637 760.624 76.9035C759.491 70.3301 755.638 66.93 750.878 63.9833C748.611 62.8499 746.571 61.9432 744.984 61.2632ZM671.769 51.2897C681.969 51.2897 691.716 51.5163 701.463 51.2897C711.21 51.063 720.957 51.743 730.93 50.1563C735.691 49.4763 740.224 48.5696 744.757 46.9829C748.157 45.8496 751.558 44.2629 752.691 40.1828C753.371 37.236 754.051 34.2893 754.731 31.5692C755.411 27.9425 753.598 24.7691 752.918 21.8224C749.744 17.7423 745.891 14.7956 741.131 13.8889C737.051 13.2089 733.197 11.8488 729.117 11.8488C712.117 11.8488 695.116 11.8488 678.116 11.8488C676.076 11.8488 674.036 11.8488 671.996 11.8488C671.769 24.9958 671.769 37.916 671.769 51.2897Z" fill="white"/>
<path d="M980.722 4.14168C981.402 3.46167 981.856 3.00832 982.309 2.55498C982.762 2.55498 983.216 2.32831 983.669 2.32831C987.296 4.59502 991.376 3.91501 995.229 3.23499C999.762 2.32831 1002.03 2.32831 1006.79 3.23499C1009.96 3.91501 1013.82 4.36835 1016.76 3.46167C1019.03 2.78165 1021.07 2.32831 1023.11 2.55498C1033.08 2.78165 1043.28 2.78165 1053.03 3.91501C1061.87 5.04837 1070.48 7.08841 1078.19 11.8485C1089.07 18.422 1096.32 27.2622 1099.04 39.9558C1099.72 43.3558 1099.27 47.2093 1100.4 50.156C1101.76 53.7827 1101.76 57.1828 1101.31 60.5829C1100.18 69.8764 1099.5 79.1699 1094.96 87.7834C1091.56 94.1302 1086.8 98.6637 1081.59 102.97C1075.24 108.184 1067.08 109.317 1059.83 112.491C1059.6 112.491 1059.38 112.491 1059.15 112.491C1052.8 112.944 1046.46 113.624 1040.11 113.851C1020.39 114.077 1000.67 113.851 980.949 113.851C980.722 77.1299 980.722 40.6358 980.722 4.14168ZM990.242 11.8485C990.242 43.1292 990.242 73.5031 990.242 104.33C1001.35 104.33 1012.23 104.557 1023.11 104.33C1033.76 103.877 1044.42 105.237 1055.3 103.197C1060.74 102.064 1066.4 101.157 1071.16 98.437C1077.96 94.5836 1083.63 88.9168 1086.8 81.4367C1087.48 79.6233 1088.39 78.0366 1089.3 76.2232C1089.75 72.8231 1090.88 69.1964 1090.88 65.343C1090.88 58.3162 1091.11 51.2893 1089.75 44.0359C1087.48 32.0223 1081.36 22.9554 1070.48 17.5153C1063.23 13.8886 1055.07 11.8485 1047.14 11.6218C1028.1 11.3952 1009.28 11.8485 990.242 11.8485Z" fill="white"/>
<path d="M824.997 3.91501C827.944 17.062 826.584 29.9822 826.81 42.9025C827.037 56.0494 827.037 69.1964 826.81 82.3433C826.81 89.1435 830.437 93.2236 834.971 97.5303C840.637 102.744 847.891 103.65 854.464 106.597C854.918 106.824 855.371 107.051 855.598 106.824C861.038 105.917 866.025 108.184 871.238 108.411C875.545 108.411 879.398 107.277 883.705 107.051C887.785 106.824 891.638 106.371 895.719 104.557C897.759 103.65 900.479 103.197 902.972 102.517C908.412 100.477 912.266 96.397 915.666 92.3169C918.612 88.9168 919.292 84.1567 919.292 79.6233C919.519 65.1163 919.292 50.6093 919.292 36.1024C919.292 24.9955 919.292 13.8886 919.292 2.32831C921.106 2.55498 922.692 2.78165 924.506 3.23499C925.413 3.00832 926.773 2.55498 928.133 2.32831C928.586 3.00832 928.813 3.46167 928.813 3.68834C928.813 30.2089 928.813 56.7295 928.813 83.25C928.813 89.5968 926.093 94.8103 922.239 99.5704C919.292 103.424 915.212 106.371 911.359 109.091C907.505 111.811 902.745 112.264 898.439 114.077C895.265 115.437 891.865 114.757 888.918 115.664C882.798 117.477 876.451 116.571 870.331 116.797C866.478 117.024 862.171 117.931 858.998 116.571C855.371 114.757 851.518 117.024 848.344 114.304C847.437 113.624 845.397 114.077 844.264 114.077C839.277 110.904 834.291 109.317 829.984 106.144C822.504 100.704 819.33 95.2636 817.064 86.1967C815.93 81.4366 815.93 77.1299 815.93 72.3698C815.93 49.7026 815.93 27.0355 815.93 4.14168C818.877 3.91501 821.824 3.91501 824.997 3.91501Z" fill="white"/>
</g>
</svg>
