<svg width="983" height="192" viewBox="0 0 983 192" fill="none" xmlns="http://www.w3.org/2000/svg">
<g opacity="0.6">
<path d="M133.874 83.3882C133.874 56.5129 133.874 29.4696 133.874 2.09033C135.05 2.09033 136.226 2.09033 137.569 2.09033C155.878 2.09033 174.187 2.09033 192.496 2.09033C197.703 2.09033 202.574 3.60207 207.445 4.77786C213.492 6.12163 218.531 9.14511 223.067 13.3444C224.074 14.3522 225.586 14.8561 226.426 15.8639C228.274 18.3835 229.617 21.239 231.297 23.9265C232.305 25.6062 233.145 27.9578 233.313 29.9735C233.649 35.8525 235.16 41.7315 234.489 47.6104C234.321 49.2901 233.817 50.9698 233.481 52.6496C233.145 54.4972 232.809 56.3449 232.137 58.1926C231.465 59.8723 230.121 61.0481 230.457 63.0638C226.426 68.7748 222.395 74.4858 215.508 77.6772C209.461 80.5327 203.078 81.8765 196.527 82.8843C186.281 84.2281 176.035 83.3882 165.788 83.7242C155.374 84.0601 144.96 83.7242 134.546 83.7242C134.378 83.7242 134.21 83.5562 133.874 83.3882ZM156.046 19.2234C156.046 35.3486 156.046 50.8019 156.046 66.4232C156.382 66.5911 156.55 66.5911 156.718 66.5911C164.613 66.5911 172.507 66.5911 180.402 66.5911C181.914 66.5911 183.593 67.0951 184.937 66.4232C186.953 65.4153 188.968 65.7513 191.152 65.4153C193.336 65.2474 195.687 64.9114 197.703 64.4075C199.383 64.0716 201.062 63.3997 202.574 62.7278C209.125 59.3684 211.645 53.6574 212.484 46.7706C212.82 44.083 212.316 41.3955 212.652 38.708C212.988 34.5087 211.141 30.9813 209.293 27.4539C207.613 24.2625 203.414 23.5906 200.894 21.071C197.199 20.9031 193.672 19.2234 190.144 19.0554C178.722 19.0554 167.468 19.2234 156.046 19.2234Z" fill="#EFEFEF"/>
<path d="M477.712 1.92231C484.095 1.92231 490.142 1.92231 496.357 1.92231C496.525 1.92231 496.861 1.4184 497.029 1.25043C497.868 1.58637 498.708 2.09028 499.716 2.42622C499.716 11.8326 499.716 21.4069 499.716 31.1492C518.529 31.1492 537.006 31.1492 555.818 31.1492C555.818 31.1492 555.818 31.1492 555.986 30.9813C556.154 30.8133 556.154 30.6453 556.154 30.4774C556.154 21.4069 556.154 12.3365 556.154 3.43405C556.658 2.93013 556.994 2.59419 557.498 2.09028C564.217 2.09028 571.104 2.09028 578.158 2.09028C578.158 29.1336 578.158 56.1769 578.158 83.3882C570.936 83.3882 563.713 83.3882 556.322 83.3882C556.322 72.1341 556.322 60.7121 556.322 49.2901C537.342 49.2901 518.865 49.2901 499.884 49.2901C499.884 60.5441 499.884 71.9662 499.884 83.3882C492.325 83.3882 485.271 83.3882 477.88 83.3882C477.712 56.5128 477.712 29.4695 477.712 1.92231Z" fill="#EFEFEF"/>
<path d="M285.888 2.09033C286.728 2.09033 287.232 1.92236 287.736 1.92236C295.463 1.92236 303.189 1.92236 310.58 1.92236C313.603 7.12946 315.619 12.5045 318.81 17.3757C320.658 20.2312 322.002 23.7586 323.682 26.95C328.049 35.5165 332.752 44.0831 337.119 52.6496C341.151 60.2083 344.846 67.9349 348.877 75.4936C350.221 78.0132 351.397 80.5327 352.573 82.8843C352.405 83.2203 352.237 83.3882 352.069 83.3882C351.901 83.5562 351.733 83.5562 351.733 83.5562C344.342 83.5562 336.951 83.5562 329.561 83.5562C328.049 80.8687 326.369 78.3491 325.025 75.8295C323.682 73.142 322.674 70.4545 321.33 67.431C313.435 67.431 305.709 67.431 298.15 67.431C290.591 67.431 283.033 67.431 275.306 67.431C274.13 70.2865 272.283 72.8061 271.107 75.6616C269.931 78.3491 268.251 80.8687 266.74 83.3882C259.013 83.3882 251.454 83.3882 243.728 83.3882C245.575 78.5171 247.759 74.1498 250.446 69.7826C253.638 64.7435 256.157 59.0325 258.509 53.4894C259.517 50.9699 261.364 49.1222 262.036 46.4346C262.708 43.7471 264.724 41.5635 266.068 39.0439C267.243 36.6923 268.251 34.1728 269.595 31.9891C274.13 24.5984 277.49 16.7038 281.689 9.31308C283.369 6.96149 284.712 4.6099 285.888 2.09033ZM282.697 52.3136C293.111 52.3136 303.189 52.3136 313.603 52.3136C311.084 46.9386 308.9 41.8994 306.213 37.0283C303.525 32.1571 301.845 26.95 298.318 21.9109C296.47 25.4383 294.623 28.7977 292.943 32.1571C291.263 35.5165 289.752 38.876 288.24 42.2354C286.392 45.4268 284.544 48.6183 282.697 52.3136Z" fill="#EFEFEF"/>
<path d="M361.644 55.0011C361.812 50.4659 360.132 45.9307 360.468 41.3955C361.14 34.1727 362.483 27.4539 366.515 21.239C370.546 15.0241 375.585 9.98493 382.472 6.96146C388.687 4.27393 394.902 1.58639 401.621 1.08248C404.476 -0.597229 407.668 0.242625 410.691 0.0746537C416.234 -0.0933171 421.777 0.0746537 427.32 0.0746537C432.527 0.0746537 437.399 1.41842 442.27 2.76219C444.621 3.43407 447.141 3.77001 449.492 4.94581C451.508 5.95363 453.86 6.45755 456.211 7.2974C456.211 13.5123 456.211 19.3913 456.211 25.4383C456.211 25.7742 455.875 25.9422 455.539 26.4461C454.364 25.7742 453.02 25.1023 451.844 24.4304C446.973 21.7429 441.766 20.2312 436.727 18.5514C433.871 17.5436 430.68 17.3757 427.656 17.2077C421.777 17.0397 415.898 16.8717 410.019 17.2077C402.125 17.7116 394.566 19.5593 388.855 25.4383C385.999 28.2938 384.488 31.8211 383.48 35.8524C382.64 39.0439 382.472 42.0674 382.64 45.0908C382.976 50.2979 384.32 55.1691 388.351 58.8644C390.031 60.3762 391.375 61.8879 392.886 63.3997C398.261 64.7434 402.797 68.1028 408.508 67.7669C414.051 69.7826 419.594 68.7747 425.137 68.6068C430.512 68.4388 435.887 67.431 440.926 65.7512C445.965 64.0715 450.668 61.72 455.875 59.7043C456.379 65.7513 455.875 71.6302 456.211 77.5092C453.188 80.1967 449.156 80.5327 445.797 81.8764C441.262 83.5562 436.391 84.396 431.52 85.2359C424.297 86.4117 417.242 86.2437 410.187 85.7398C404.308 85.4038 398.261 84.8999 392.55 82.3804C390.367 81.3725 387.847 80.7007 385.496 79.8608C381.8 78.517 378.273 76.6694 375.417 73.9818C367.523 66.7591 367.859 67.263 362.316 55.841C362.148 55.3371 361.812 55.1691 361.644 55.0011Z" fill="#EFEFEF"/>
<path d="M656.936 83.7242C656.936 56.3449 656.936 29.4696 656.936 2.09033C658.615 2.09033 660.295 2.09033 661.807 2.09033C677.932 2.09033 694.057 2.09033 710.182 2.09033C714.214 2.09033 721.436 3.93801 726.14 7.4654C727.147 8.13728 727.651 9.48105 728.491 10.4889C729.499 12.0006 730.339 13.3444 731.515 15.0241C731.515 19.3913 731.515 24.0945 731.515 27.4539C729.331 35.6845 723.452 37.7001 716.397 39.8838C720.596 40.3877 723.452 41.3955 726.307 42.2354C732.019 43.9151 738.233 51.3058 737.562 57.6887C737.394 59.8723 737.394 62.0559 737.562 64.2396C737.897 69.7826 735.378 74.1498 731.179 77.1733C726.811 80.5327 721.604 82.0445 715.893 82.8843C706.151 84.2281 696.409 83.3882 686.498 83.7242C676.924 83.8921 667.182 83.7242 656.936 83.7242ZM718.245 44.7549C714.55 44.251 711.19 43.5791 707.831 43.4112C704.135 43.2432 700.44 43.4112 696.745 43.4112C687.002 43.4112 677.26 43.4112 667.518 43.4112C666.342 43.4112 665.334 43.4112 664.158 43.4112C664.158 54.6652 664.158 65.7513 664.158 76.3335C666.006 77.1733 668.022 75.6616 669.533 77.6772C670.373 76.1655 671.885 76.6694 673.229 76.6694C685.491 76.6694 697.752 76.5014 710.014 76.6694C714.046 76.6694 717.909 76.3335 721.772 74.6537C725.636 72.974 728.155 70.6224 729.667 66.5911C731.011 63.0638 730.339 59.8723 729.835 56.3449C728.995 51.4738 726.14 48.9542 722.612 46.7706C720.932 45.9307 719.421 45.2588 718.245 44.7549ZM663.99 37.3642C671.549 37.3642 678.772 37.5322 685.994 37.3642C693.217 37.1962 700.44 37.7001 707.831 36.5244C711.358 36.0204 714.718 35.3486 718.077 34.1728C720.596 33.3329 723.116 32.1571 723.956 29.1336C724.46 26.95 724.964 24.7664 725.468 22.7507C725.972 20.0632 724.628 17.7116 724.124 15.528C721.772 12.5045 718.917 10.3209 715.389 9.64902C712.366 9.14511 709.51 8.13728 706.487 8.13728C693.889 8.13728 681.291 8.13728 668.694 8.13728C667.182 8.13728 665.67 8.13728 664.158 8.13728C663.99 17.8796 663.99 27.4539 663.99 37.3642Z" fill="#EFEFEF"/>
<path d="M892.935 2.42604C893.438 1.92213 893.774 1.58619 894.11 1.25025C894.446 1.25025 894.782 1.08228 895.118 1.08228C897.806 2.76198 900.829 2.25807 903.685 1.75416C907.044 1.08227 908.724 1.08227 912.251 1.75416C914.603 2.25807 917.458 2.59401 919.642 1.92213C921.322 1.41822 922.833 1.08228 924.345 1.25025C931.736 1.41822 939.294 1.41822 946.517 2.25807C953.068 3.09793 959.451 4.60966 965.162 8.13705C973.225 13.0082 978.6 19.5591 980.615 28.9654C981.119 31.485 980.783 34.3405 981.623 36.5241C982.631 39.2117 982.631 41.7312 982.295 44.2508C981.455 51.1376 980.951 58.0244 977.592 64.4073C975.072 69.1105 971.545 72.4699 967.682 75.6613C962.978 79.5247 956.931 80.3645 951.556 82.7161C951.388 82.7161 951.22 82.7161 951.052 82.7161C946.349 83.0521 941.646 83.556 936.943 83.7239C922.329 83.8919 907.716 83.7239 893.103 83.7239C892.935 56.5127 892.935 29.4694 892.935 2.42604ZM899.989 8.13705C899.989 31.317 899.989 53.8251 899.989 76.6692C908.22 76.6692 916.283 76.8371 924.345 76.6692C932.24 76.3332 940.134 77.341 948.197 75.8293C952.228 74.9895 956.427 74.3176 959.955 72.3019C964.994 69.4464 969.193 65.2471 971.545 59.7041C972.049 58.3603 972.721 57.1845 973.393 55.8408C973.728 53.3212 974.568 50.6337 974.568 47.7782C974.568 42.5711 974.736 37.364 973.729 31.9889C972.049 23.0865 967.514 16.3676 959.451 12.3363C954.076 9.64879 948.029 8.13705 942.15 7.96908C928.04 7.80111 914.099 8.13705 899.989 8.13705Z" fill="#EFEFEF"/>
<path d="M777.537 2.25807C779.721 12.0004 778.713 21.5747 778.881 31.1491C779.049 40.8914 779.049 50.6337 778.881 60.376C778.881 65.4151 781.569 68.4386 784.928 71.63C789.127 75.4934 794.502 76.1653 799.373 78.3489C799.709 78.5168 800.045 78.6848 800.213 78.5168C804.245 77.845 807.94 79.5247 811.803 79.6926C814.995 79.6926 817.85 78.8528 821.042 78.6848C824.065 78.5168 826.921 78.1809 829.944 76.8371C831.456 76.1652 833.472 75.8293 835.319 75.3254C839.351 73.8137 842.206 70.7902 844.726 67.7667C846.909 65.2471 847.413 61.7198 847.413 58.3603C847.581 47.6102 847.413 36.8601 847.413 26.1099C847.413 17.8794 847.413 9.64879 847.413 1.08228C848.757 1.25025 849.933 1.41822 851.276 1.75416C851.948 1.58619 852.956 1.25025 853.964 1.08228C854.3 1.58619 854.468 1.92213 854.468 2.0901C854.468 21.7427 854.468 41.3953 854.468 61.0479C854.468 65.7511 852.452 69.6144 849.597 73.1418C847.413 75.9973 844.39 78.1809 841.534 80.1965C838.679 82.2122 835.151 82.5481 831.96 83.8919C829.608 84.8997 827.089 84.3958 824.905 85.0677C820.37 86.4115 815.667 85.7396 811.131 85.9076C808.276 86.0755 805.084 86.7474 802.733 85.7396C800.045 84.3958 797.19 86.0755 794.838 84.0599C794.166 83.556 792.655 83.8919 791.815 83.8919C788.119 81.5403 784.424 80.3645 781.233 78.0129C775.69 73.9816 773.338 69.9503 771.658 63.2315C770.818 59.7041 770.818 56.5127 770.818 52.9853C770.818 36.1882 770.818 19.3911 770.818 2.42604C773.002 2.25807 775.186 2.25807 777.537 2.25807Z" fill="#EFEFEF"/>
</g>
<g opacity="0.6">
<path d="M0 188.763C0 161.887 0 134.844 0 107.465C1.1758 107.465 2.35159 107.465 3.69535 107.465C22.0042 107.465 40.313 107.465 58.6218 107.465C63.8289 107.465 68.7001 108.977 73.5712 110.152C79.6182 111.496 84.6573 114.52 89.1925 118.719C90.2003 119.727 91.7121 120.231 92.5519 121.238C94.3996 123.758 95.7434 126.614 97.4231 129.301C98.4309 130.981 99.2708 133.332 99.4387 135.348C99.7747 141.227 101.286 147.106 100.615 152.985C100.447 154.665 99.9427 156.344 99.6067 158.024C99.2708 159.872 98.9348 161.719 98.263 163.567C97.5911 165.247 96.2473 166.423 96.5832 168.438C92.5519 174.149 88.5206 179.86 81.6338 183.052C75.5869 185.907 69.204 187.251 62.6531 188.259C52.4069 189.603 42.1607 188.763 31.9145 189.099C21.5003 189.435 11.0861 189.099 0.671873 189.099C0.503902 189.099 0.335942 188.931 0 188.763ZM22.1721 124.598C22.1721 140.723 22.1721 156.176 22.1721 171.798C22.5081 171.966 22.6761 171.966 22.844 171.966C30.7387 171.966 38.6333 171.966 46.5279 171.966C48.0397 171.966 49.7194 172.47 51.0631 171.798C53.0788 170.79 55.0944 171.126 57.278 170.79C59.4617 170.622 61.8133 170.286 63.8289 169.782C65.5086 169.446 67.1883 168.774 68.7001 168.102C75.2509 164.743 77.7705 159.032 78.6104 152.145C78.9463 149.458 78.4424 146.77 78.7783 144.082C79.1143 139.883 77.2666 136.356 75.4189 132.828C73.7392 129.637 69.5399 128.965 67.0204 126.446C63.325 126.278 59.7976 124.598 56.2702 124.43C44.8482 124.43 33.5942 124.598 22.1721 124.598Z" fill="#EFEFEF"/>
<path d="M343.812 107.297C350.194 107.297 356.241 107.297 362.456 107.297C362.624 107.297 362.96 106.793 363.128 106.625C363.968 106.961 364.808 107.465 365.816 107.801C365.816 117.207 365.816 126.782 365.816 136.524C384.628 136.524 403.105 136.524 421.918 136.524C421.918 136.524 421.918 136.524 422.086 136.356C422.254 136.188 422.254 136.02 422.254 135.852C422.254 126.782 422.254 117.711 422.254 108.809C422.758 108.305 423.094 107.969 423.598 107.465C430.317 107.465 437.203 107.465 444.258 107.465C444.258 134.508 444.258 161.551 444.258 188.763C437.035 188.763 429.813 188.763 422.422 188.763C422.422 177.509 422.422 166.087 422.422 154.665C403.441 154.665 384.964 154.665 365.984 154.665C365.984 165.919 365.984 177.341 365.984 188.763C358.425 188.763 351.37 188.763 343.98 188.763C343.812 161.887 343.812 134.844 343.812 107.297Z" fill="#EFEFEF"/>
<path d="M152.015 107.465C152.855 107.465 153.358 107.297 153.862 107.297C161.589 107.297 169.316 107.297 176.706 107.297C179.73 112.504 181.746 117.879 184.937 122.75C186.785 125.606 188.128 129.133 189.808 132.325C194.175 140.891 198.879 149.458 203.246 158.024C207.277 165.583 210.972 173.309 215.004 180.868C216.347 183.388 217.523 185.907 218.699 188.259C218.531 188.595 218.363 188.763 218.195 188.763C218.027 188.931 217.859 188.931 217.859 188.931C210.469 188.931 203.078 188.931 195.687 188.931C194.175 186.243 192.496 183.724 191.152 181.204C189.808 178.517 188.8 175.829 187.457 172.806C179.562 172.806 171.835 172.806 164.277 172.806C156.718 172.806 149.159 172.806 141.433 172.806C140.257 175.661 138.409 178.181 137.233 181.036C136.057 183.724 134.378 186.243 132.866 188.763C125.139 188.763 117.581 188.763 109.854 188.763C111.702 183.892 113.885 179.524 116.573 175.157C119.764 170.118 122.284 164.407 124.635 158.864C125.643 156.344 127.491 154.497 128.163 151.809C128.835 149.122 130.85 146.938 132.194 144.418C133.37 142.067 134.378 139.547 135.722 137.364C140.257 129.973 143.616 122.078 147.815 114.688C149.495 112.336 150.839 109.984 152.015 107.465ZM148.823 157.688C159.237 157.688 169.316 157.688 179.73 157.688C177.21 152.313 175.027 147.274 172.339 142.403C169.652 137.532 167.972 132.325 164.445 127.285C162.597 130.813 160.749 134.172 159.069 137.532C157.39 140.891 155.878 144.251 154.366 147.61C152.519 150.801 150.671 153.993 148.823 157.688Z" fill="#EFEFEF"/>
<path d="M227.744 160.376C227.912 155.84 226.232 151.305 226.568 146.77C227.24 139.547 228.584 132.828 232.615 126.614C236.646 120.399 241.685 115.36 248.572 112.336C254.787 109.648 261.002 106.961 267.721 106.457C270.576 104.777 273.768 105.617 276.791 105.449C282.334 105.281 287.877 105.449 293.42 105.449C298.627 105.449 303.499 106.793 308.37 108.137C310.721 108.809 313.241 109.145 315.593 110.32C317.608 111.328 319.96 111.832 322.311 112.672C322.311 118.887 322.311 124.766 322.311 130.813C322.311 131.149 321.975 131.317 321.639 131.821C320.464 131.149 319.12 130.477 317.944 129.805C313.073 127.117 307.866 125.606 302.827 123.926C299.971 122.918 296.78 122.75 293.756 122.582C287.877 122.414 281.998 122.246 276.119 122.582C268.225 123.086 260.666 124.934 254.955 130.813C252.1 133.668 250.588 137.196 249.58 141.227C248.74 144.418 248.572 147.442 248.74 150.465C249.076 155.673 250.42 160.544 254.451 164.239C256.131 165.751 257.475 167.262 258.986 168.774C264.361 170.118 268.897 173.477 274.608 173.141C280.151 175.157 285.694 174.149 291.237 173.981C296.612 173.813 301.987 172.806 307.026 171.126C312.065 169.446 316.768 167.095 321.975 165.079C322.479 171.126 321.975 177.005 322.311 182.884C319.288 185.571 315.257 185.907 311.897 187.251C307.362 188.931 302.491 189.771 297.62 190.61C290.397 191.786 283.342 191.618 276.287 191.114C270.408 190.778 264.361 190.274 258.65 187.755C256.467 186.747 253.947 186.075 251.596 185.235C247.9 183.892 244.373 182.044 241.517 179.356C233.623 172.134 233.959 172.638 228.416 161.216C228.248 160.712 227.912 160.544 227.744 160.376Z" fill="#EFEFEF"/>
<path d="M523.035 189.099C523.035 161.719 523.035 134.844 523.035 107.465C524.715 107.465 526.395 107.465 527.906 107.465C544.032 107.465 560.157 107.465 576.282 107.465C580.313 107.465 587.536 109.313 592.239 112.84C593.247 113.512 593.751 114.856 594.591 115.863C595.599 117.375 596.438 118.719 597.614 120.399C597.614 124.766 597.614 129.469 597.614 132.829C595.431 141.059 589.552 143.075 582.497 145.258C586.696 145.762 589.552 146.77 592.407 147.61C598.118 149.29 604.333 156.68 603.661 163.063C603.493 165.247 603.493 167.431 603.661 169.614C603.997 175.157 601.478 179.524 597.278 182.548C592.911 185.907 587.704 187.419 581.993 188.259C572.251 189.603 562.508 188.763 552.598 189.099C543.024 189.267 533.281 189.099 523.035 189.099ZM584.345 150.13C580.649 149.626 577.29 148.954 573.93 148.786C570.235 148.618 566.54 148.786 562.844 148.786C553.102 148.786 543.36 148.786 533.617 148.786C532.442 148.786 531.434 148.786 530.258 148.786C530.258 160.04 530.258 171.126 530.258 181.708C532.106 182.548 534.121 181.036 535.633 183.052C536.473 181.54 537.985 182.044 539.328 182.044C551.59 182.044 563.852 181.876 576.114 182.044C580.145 182.044 584.009 181.708 587.872 180.028C591.735 178.349 594.255 175.997 595.767 171.966C597.11 168.438 596.438 165.247 595.935 161.719C595.095 156.848 592.239 154.329 588.712 152.145C587.032 151.305 585.52 150.633 584.345 150.13ZM530.09 142.739C537.649 142.739 544.871 142.907 552.094 142.739C559.317 142.571 566.54 143.075 573.93 141.899C577.458 141.395 580.817 140.723 584.177 139.547C586.696 138.707 589.216 137.532 590.056 134.508C590.559 132.325 591.063 130.141 591.567 128.125C592.071 125.438 590.727 123.086 590.224 120.903C587.872 117.879 585.016 115.695 581.489 115.024C578.466 114.52 575.61 113.512 572.587 113.512C559.989 113.512 547.391 113.512 534.793 113.512C533.281 113.512 531.77 113.512 530.258 113.512C530.09 123.254 530.09 132.829 530.09 142.739Z" fill="#EFEFEF"/>
<path d="M759.035 107.801C759.539 107.297 759.875 106.961 760.21 106.625C760.546 106.625 760.882 106.457 761.218 106.457C763.906 108.137 766.929 107.633 769.785 107.129C773.144 106.457 774.824 106.457 778.351 107.129C780.703 107.633 783.558 107.969 785.742 107.297C787.422 106.793 788.934 106.457 790.445 106.625C797.836 106.793 805.395 106.793 812.617 107.633C819.168 108.472 825.551 109.984 831.262 113.512C839.325 118.383 844.7 124.934 846.715 134.34C847.219 136.86 846.883 139.715 847.723 141.899C848.731 144.586 848.731 147.106 848.395 149.625C847.555 156.512 847.051 163.399 843.692 169.782C841.172 174.485 837.645 177.844 833.782 181.036C829.079 184.899 823.031 185.739 817.656 188.091C817.488 188.091 817.321 188.091 817.153 188.091C812.449 188.427 807.746 188.931 803.043 189.099C788.43 189.266 773.816 189.099 759.203 189.099C759.035 161.887 759.035 134.844 759.035 107.801ZM766.089 113.512C766.089 136.692 766.089 159.2 766.089 182.044C774.32 182.044 782.383 182.212 790.445 182.044C798.34 181.708 806.234 182.716 814.297 181.204C818.328 180.364 822.528 179.692 826.055 177.676C831.094 174.821 835.293 170.622 837.645 165.079C838.149 163.735 838.821 162.559 839.493 161.215C839.829 158.696 840.668 156.008 840.668 153.153C840.668 147.946 840.836 142.739 839.829 137.363C838.149 128.461 833.614 121.742 825.551 117.711C820.176 115.023 814.129 113.512 808.25 113.344C794.141 113.176 780.199 113.512 766.089 113.512Z" fill="#EFEFEF"/>
<path d="M643.637 107.633C645.821 117.375 644.813 126.949 644.981 136.524C645.149 146.266 645.149 156.008 644.981 165.751C644.981 170.79 647.669 173.813 651.028 177.005C655.227 180.868 660.602 181.54 665.474 183.723C665.809 183.891 666.145 184.059 666.313 183.891C670.345 183.22 674.04 184.899 677.903 185.067C681.095 185.067 683.95 184.227 687.142 184.059C690.165 183.891 693.021 183.555 696.044 182.212C697.556 181.54 699.572 181.204 701.419 180.7C705.451 179.188 708.306 176.165 710.826 173.141C713.009 170.622 713.513 167.094 713.513 163.735C713.681 152.985 713.513 142.235 713.513 131.485C713.513 123.254 713.513 115.023 713.513 106.457C714.857 106.625 716.033 106.793 717.377 107.129C718.048 106.961 719.056 106.625 720.064 106.457C720.4 106.961 720.568 107.297 720.568 107.465C720.568 127.117 720.568 146.77 720.568 166.422C720.568 171.126 718.552 174.989 715.697 178.516C713.513 181.372 710.49 183.555 707.634 185.571C704.779 187.587 701.251 187.923 698.06 189.266C695.708 190.274 693.189 189.77 691.005 190.442C686.47 191.786 681.767 191.114 677.231 191.282C674.376 191.45 671.185 192.122 668.833 191.114C666.145 189.77 663.29 191.45 660.938 189.434C660.266 188.931 658.755 189.266 657.915 189.266C654.219 186.915 650.524 185.739 647.333 183.387C641.79 179.356 639.438 175.325 637.758 168.606C636.918 165.079 636.918 161.887 636.918 158.36C636.918 141.563 636.918 124.766 636.918 107.801C639.102 107.633 641.286 107.633 643.637 107.633Z" fill="#EFEFEF"/>
</g>
</svg>
